<svg width="415" height="251" viewBox="0 0 415 251" fill="none" xmlns="http://www.w3.org/2000/svg">
<mask id="mask0_1898_7208" style="mask-type:alpha" maskUnits="userSpaceOnUse" x="0" y="0" width="415" height="251">
<rect width="415" height="251" fill="#C4C4C4"/>
</mask>
<g mask="url(#mask0_1898_7208)">
<path fill-rule="evenodd" clip-rule="evenodd" d="M236.719 133.122L216.803 78.9166C184.387 -9.30548 59.6117 -9.30557 27.1964 78.9165L7.27962 133.122C-3.14503 161.494 -25.5058 183.855 -53.8776 194.28L-108.083 214.196C-196.305 246.612 -196.306 371.387 -108.083 403.803L-53.8776 423.719C-25.5058 434.144 -3.14503 456.505 7.27959 484.877L27.1964 539.082C59.6117 627.305 184.387 627.305 216.803 539.082L236.719 484.877C247.144 456.505 269.505 434.144 297.877 423.719L352.082 403.803C440.305 371.387 440.305 246.612 352.082 214.196L297.877 194.28C269.505 183.855 247.144 161.494 236.719 133.122ZM217.741 78.5717C185.005 -10.5238 58.994 -10.5239 26.2577 78.5717L6.34096 132.777C-3.98247 160.874 -26.1261 183.018 -54.2225 193.341L-108.428 213.258C-197.524 245.994 -197.524 372.005 -108.428 404.741L-54.2225 424.658C-26.1261 434.981 -3.98247 457.125 6.34096 485.221L26.2577 539.427C58.994 628.523 185.005 628.523 217.741 539.427L237.658 485.222C247.981 457.125 270.125 434.981 298.221 424.658L352.427 404.741C441.523 372.005 441.523 245.994 352.427 213.258L298.222 193.341C270.125 183.018 247.981 160.874 237.658 132.778L217.741 78.5717Z" fill="#FEC111" fill-opacity="0.2"/>
<path fill-rule="evenodd" clip-rule="evenodd" d="M110.719 133.122L90.8026 78.9166C58.3873 -9.30548 -66.3883 -9.30557 -98.8036 78.9165L-118.72 133.122C-129.145 161.494 -151.506 183.855 -179.878 194.28L-234.083 214.196C-322.305 246.612 -322.306 371.387 -234.083 403.803L-179.878 423.719C-151.506 434.144 -129.145 456.505 -118.72 484.877L-98.8036 539.082C-66.3883 627.305 58.3872 627.305 90.8026 539.082L110.719 484.877C121.144 456.505 143.505 434.144 171.877 423.719L226.082 403.803C314.305 371.387 314.305 246.612 226.082 214.196L171.877 194.28C143.505 183.855 121.144 161.494 110.719 133.122ZM91.7413 78.5717C59.005 -10.5238 -67.006 -10.5239 -99.7423 78.5717L-119.659 132.777C-129.982 160.874 -152.126 183.018 -180.222 193.341L-234.428 213.258C-323.524 245.994 -323.524 372.005 -234.428 404.741L-180.223 424.658C-152.126 434.981 -129.982 457.125 -119.659 485.221L-99.7423 539.427C-67.006 628.523 59.0049 628.523 91.7412 539.427L111.658 485.222C121.981 457.125 144.125 434.981 172.221 424.658L226.427 404.741C315.523 372.005 315.523 245.994 226.427 213.258L172.222 193.341C144.125 183.018 121.981 160.874 111.658 132.778L91.7413 78.5717Z" fill="#FEC111" fill-opacity="0.2"/>
</g>
</svg>
